<svg xmlns="http://www.w3.org/2000/svg" width="312" height="312" viewBox="26 15 78 98"><defs><linearGradient id="era" gradientUnits="userSpaceOnUse" x1="36" y1="22" x2="100" y2="106"><stop offset="0%" stop-color="#ff6f91"/><stop offset="30%" stop-color="#b06ef0"/><stop offset="56%" stop-color="#5b8cff"/><stop offset="80%" stop-color="#28b9c4"/><stop offset="100%" stop-color="#39dc84"/></linearGradient><filter id="ds" x="-30%" y="-30%" width="160%" height="160%"><feDropShadow dx="0" dy="2.2" stdDeviation="2.2" flood-color="#171a33" flood-opacity="0.38"/></filter></defs><g transform="translate(-6 0)" filter="url(#ds)"><g fill="none" stroke="url(#era)" stroke-linecap="round" stroke-linejoin="round"><path d="M39 23 V105" stroke-width="6.6"/><path d="M46 23 V105" stroke-width="5.0"/><g stroke-width="7.2"><path d="M74 60 Q74 51 82 51 H90 Q100 51 100 42 V32.5 Q100 23.5 91 23.5 H65"/><path d="M65 23.5 A3.6 3.6 0 1 0 68.2 27.3 A1.5 1.5 0 0 0 66.2 27"/><path d="M74 68 Q74 77 82 77 H90 Q100 77 100 86 V95.5 Q100 104.5 91 104.5 H65"/><path d="M65 104.5 A3.6 3.6 0 1 1 68.2 100.7 A1.5 1.5 0 0 1 66.2 101"/></g><g stroke-width="5.8"><path d="M74 60 Q68 62 67 64 Q68 66 74 68"/><path d="M67 64 H61"/></g></g><path d="M61 57.2 L61 70.8 L50.5 64 Z" fill="url(#era)" stroke="url(#era)" stroke-width="2.9" stroke-linejoin="round"/><g transform="translate(0 -1)" opacity="0.5" fill="none" stroke="#fff" stroke-linecap="round" stroke-linejoin="round"><path d="M39 23 V105" stroke-width="1.9799999999999998"/><path d="M46 23 V105" stroke-width="1.5"/><g stroke-width="1.9440000000000002"><path d="M74 60 Q74 51 82 51 H90 Q100 51 100 42 V32.5 Q100 23.5 91 23.5 H65"/><path d="M65 23.5 A3.6 3.6 0 1 0 68.2 27.3 A1.5 1.5 0 0 0 66.2 27"/><path d="M74 68 Q74 77 82 77 H90 Q100 77 100 86 V95.5 Q100 104.5 91 104.5 H65"/><path d="M65 104.5 A3.6 3.6 0 1 1 68.2 100.7 A1.5 1.5 0 0 1 66.2 101"/></g><g stroke-width="1.74"><path d="M74 60 Q68 62 67 64 Q68 66 74 68"/><path d="M67 64 H61"/></g></g></g></svg>
